<?xml version="1.0" encoding="UTF-8"?>
<svg version="1.1" viewBox="0 0 24 24" xmlns="http://www.w3.org/2000/svg">
 <path d="m14.494 13.295c-0.47165 0-0.90117 0.18011-1.2238 0.47518l-3.2375-1.3206c0.07518-0.29535 0.07518-0.60482 0-0.90018l3.2375-1.3206c0.32259 0.29509 0.75212 0.47521 1.2238 0.47521 1.0017 0 1.8138-0.81206 1.8138-1.8138 0-1.0017-0.81206-1.8138-1.8138-1.8138s-1.8138 0.81206-1.8138 1.8138c0 0.15537 0.01959 0.30617 0.05636 0.4501l-3.2375 1.3206c-0.32256-0.29509-0.75206-0.47521-1.2237-0.47521-1.0017 0-1.8138 0.81206-1.8138 1.8138s0.81206 1.8138 1.8138 1.8138c0.47164 0 0.90117-0.18011 1.2238-0.47518l3.2375 1.3206c-0.03751 0.14709-0.05644 0.2983-0.05636 0.4501 0 1.0017 0.81206 1.8138 1.8138 1.8138s1.8138-0.81206 1.8138-1.8138c-3.7e-5 -1.0017-0.81206-1.8138-1.8138-1.8138z"/>
 <path d="m11.586 5.1864 0.09376-0.093761v0.50751c0 0.17664 0.14336 0.32 0.32 0.32s0.32-0.14336 0.32-0.32v-0.50751l0.09376 0.093761c0.0624 0.062401 0.14432 0.093761 0.22624 0.093761s0.16384-0.031359 0.22624-0.093761c0.12512-0.12512 0.12512-0.32736 0-0.45248l-0.64-0.64001c-0.12512-0.12512-0.32736-0.12512-0.45248 0l-0.64001 0.64001c-0.12512 0.12512-0.12512 0.32736 0 0.45248s0.32736 0.12512 0.45248 0z"/>
 <path d="m12.414 18.814-0.09376 0.09376v-0.5075c0-0.17696-0.14336-0.32-0.32-0.32s-0.32 0.14304-0.32 0.32v0.5075l-0.09376-0.09376c-0.12512-0.12512-0.32736-0.12512-0.45248 0s-0.12512 0.32736 0 0.45248l0.64001 0.64001c0.0624 0.0624 0.14432 0.09376 0.22624 0.09376s0.16384-0.03136 0.22624-0.09376l0.64001-0.64001c0.12512-0.12512 0.12512-0.32736 0-0.45248s-0.32736-0.12512-0.45248 0z"/>
 <path d="m19.906 11.774-0.64001-0.64001c-0.12512-0.12512-0.32736-0.12512-0.45248 0s-0.12512 0.32736 0 0.45248l0.09376 0.09376h-0.5075c-0.17696 0-0.32 0.14336-0.32 0.32s0.14304 0.32 0.32 0.32h0.5075l-0.09376 0.09376c-0.12512 0.12512-0.12512 0.32736 0 0.45248 0.0624 0.0624 0.14432 0.09376 0.22624 0.09376s0.16384-0.03136 0.22624-0.09376l0.64001-0.64001c0.12512-0.12512 0.12512-0.32736 0-0.45248z"/>
 <path d="m5.6001 11.68h-0.50751l0.093761-0.09376c0.12512-0.12512 0.12512-0.32736 0-0.45248s-0.32736-0.12512-0.45248 0l-0.64001 0.64001c-0.12512 0.12512-0.12512 0.32736 0 0.45248l0.64001 0.64001c0.062401 0.0624 0.14432 0.09376 0.22624 0.09376 0.081921 0 0.16384-0.03136 0.22624-0.09376 0.12512-0.12512 0.12512-0.32736 0-0.45248l-0.093761-0.09376h0.50751c0.17664 0 0.32-0.14336 0.32-0.32s-0.14336-0.32-0.32-0.32z"/>
 <path d="m17.431 6.2494h-0.90496c-0.17696 0-0.32 0.14336-0.32 0.32s0.14304 0.32 0.32 0.32h0.13248l-0.35872 0.35904c-0.12512 0.12512-0.12512 0.32736 0 0.45248 0.0624 0.062401 0.14432 0.093761 0.22624 0.093761s0.16384-0.03136 0.22624-0.093761l0.35872-0.35872v0.13248c0 0.17664 0.14304 0.32 0.32 0.32s0.32-0.14336 0.32-0.32v-0.90526c0-0.17664-0.14336-0.32-0.32-0.32z"/>
 <path d="m7.7009 16.3c-0.12512-0.12512-0.32736-0.12512-0.45248 0l-0.35904 0.35872v-0.13248c0-0.17696-0.14336-0.32-0.32-0.32s-0.32 0.14304-0.32 0.32v0.90496c0 0.17696 0.14336 0.32 0.32 0.32h0.90526c0.17664 0 0.32-0.14304 0.32-0.32s-0.14336-0.32-0.32-0.32h-0.13248l0.35872-0.35872c0.12512-0.12512 0.12512-0.32768 1e-7 -0.45248z"/>
 <path d="m17.431 16.206c-0.17696 0-0.32 0.14304-0.32 0.32v0.13248l-0.35872-0.35872c-0.12512-0.12512-0.32736-0.12512-0.45248 0s-0.12512 0.32736 0 0.45248l0.35872 0.35872h-0.13248c-0.17696 0-0.32 0.14304-0.32 0.32s0.14304 0.32 0.32 0.32h0.90496c0.17696 0 0.32-0.14304 0.32-0.32v-0.90496c0-0.17696-0.14336-0.32-0.32-0.32z"/>
 <path d="m6.5694 7.7947c0.17664 0 0.32-0.14336 0.32-0.32v-0.1328l0.35904 0.35904c0.062401 0.062401 0.14432 0.093761 0.22624 0.093761 0.081921 0 0.16384-0.031359 0.22624-0.093761 0.12512-0.12512 0.12512-0.32736 0-0.45248l-0.35904-0.35904h0.1328c0.17664 0 0.32-0.14336 0.32-0.32s-0.14336-0.32-0.32-0.32h-0.90526c-0.17664 0-0.32 0.14336-0.32 0.32v0.90526c0 0.17664 0.14336 0.32 0.32 0.32z"/>
</svg>
