<?xml version="1.0" encoding="UTF-8"?>
<svg version="1.1" viewBox="0 0 24 24" xmlns="http://www.w3.org/2000/svg">
 <path d="m12.023 1.9002c-0.22944-8.8e-4 -0.45914 0.08743-0.63477 0.26172v-0.0019l-5.5234 5.4824c-0.35157 0.34871-0.35292 0.91649-0.00391 1.2676 0.34869 0.35118 0.91637 0.35445 1.2676 0.0059l3.9707-3.9434v8.8144c-0.01 0.60966 0.4454 0.91406 0.90039 0.91406s0.91039-0.3044 0.90039-0.91406v-8.832l3.9668 3.9961c0.34883 0.35118 0.91637 0.35249 1.2676 0.0039 0.1757-0.17428 0.26474-0.40347 0.26562-0.63281 8.41e-4 -0.22934-0.08731-0.45719-0.26172-0.63281l-5.4824-5.5234c-0.17443-0.17557-0.40349-0.26475-0.63281-0.26562zm-7.123 8c-0.45396 0-0.9085 0.30602-0.90039 0.91406v7.7734c0 0.0022 0.00197 0.0037 0.00195 0.0059-0.00282 0.44548 0.28734 0.8911 0.86914 0.9043 0.00551 1.6e-4 0.010106 0.0019 0.015625 2e-3h0.00781c0.00714 8e-5 0.012331 1e-4 0.019531 0h14.172c0.61261 0.01001 0.91499-0.44913 0.91211-0.90625 0-0.0022 2e-3 -0.0037 2e-3 -0.0059v-7.7734c0.01621-1.2161-1.817-1.2161-1.8008 0v6.8867h-12.398v-6.8867c0.00811-0.60804-0.44643-0.91406-0.90039-0.91406z"/>
</svg>
