<?xml version="1.0" encoding="UTF-8"?>
<svg width="300px" height="300px" enable-background="new 0 0 100 100" fill="#000000" version="1.1" viewBox="0 0 100 100" xmlns="http://www.w3.org/2000/svg">
 <defs>
  <linearGradient id="a" x1="5" x2="95" y1="5" y2="95" gradientUnits="userSpaceOnUse">
   <stop offset="0"/>
   <stop stop-color="#f00" offset=".5"/>
   <stop offset="1"/>
  </linearGradient>
 </defs>
 <circle cx="50" cy="50" r="42.933" fill="#fff" stroke="url(#a)" stroke-width="4.1333"/>
 <g transform="translate(1.6349 .27121)">
  <path d="m80.051 51.275c-0.12839 0-0.25655 0.04966-0.35396 0.14809l-8.2938 8.2917-1.1595-1.1581c-0.11832-0.11934-0.30807-0.11934-0.42435 0l-2.2014 2.2014c-0.0561 0.0561-0.08965 0.13156-0.08965 0.21318 0 0.07752 0.03355 0.15304 0.08965 0.21118l3.0262 3.0262c0.05814 0.06018 0.13805 0.08965 0.2125 0.08965 0.0765 0 0.1537-0.02947 0.21184-0.08965l2.2021-2.2008c0.05814-0.05814 0.09031-0.13156 0.09031-0.21317 0-0.07956-0.03217-0.15508-0.09031-0.21118l-1.1589-1.1602 8.2924-8.2957c0.19483-0.19483 0.19478-0.51181 2e-3 -0.7046-0.09792-0.09843-0.22688-0.14809-0.35529-0.14809zm-14.901 9.5654c-0.1298 0-0.26011 0.04694-0.35395 0.14078l-14.497 14.499c-0.19687 0.19686-0.19687 0.5138 0 0.70658l5.3385 5.3412c0.09486 0.09384 0.2237 0.14544 0.35529 0.14544s0.25874-0.05159 0.35462-0.14544l14.494-14.497c0.19687-0.19687 0.19682-0.51375 2e-3 -0.70858l-5.3419-5.3412c-0.09282-0.09384-0.22216-0.14078-0.35196-0.14078zm0.0013 1.2079 4.63 4.63-13.788 13.786-4.632-4.63 3.0913-3.094 2.0985 2.1004c0.09792 0.09792 0.22712 0.1461 0.35462 0.1461 0.1275 0 0.25705-0.04818 0.35395-0.1461 0.19483-0.19687 0.19483-0.51375 0-0.70857l-2.0991-2.0985 2.4903-2.4897 2.0978 2.0978c0.09792 0.09792 0.22578 0.14809 0.35329 0.14809s0.25568-0.05017 0.35462-0.14809c0.19483-0.19278 0.19483-0.51176 0-0.70658l-2.0991-2.0965 2.491-2.4897 2.0951 2.0959c0.10098 0.09996 0.22845 0.14942 0.35595 0.14942s0.25674-0.05048 0.35262-0.14942c0.19687-0.19279 0.19687-0.5118 0-0.70459l-2.0972-2.1004zm-14.917 16.156c-0.07662 0-0.15319 0.0287-0.21184 0.08634l-1.1967 1.1954c-0.11628 0.1173-0.11628 0.30904 0 0.42634l0.58572 0.58572-4.4494 4.45-1.3142-1.3129c-0.1938-0.19687-0.51247-0.19687-0.70526 0-0.19687 0.19687-0.19687 0.51441 0 0.70924l4.539 4.5404c0.09894 0.09792 0.22743 0.14742 0.35595 0.14742 0.1275 0 0.2547-0.0495 0.35262-0.14742 0.19483-0.19483 0.19483-0.51242 0-0.70725l-1.3116-1.3129 4.4513-4.45 0.5844 0.58572c0.05916 0.05814 0.13666 0.08766 0.21316 0.08766 0.0765 0 0.15436-0.03156 0.2125-0.08766l1.1933-1.196c0.12036-0.11934 0.12036-0.30909 0-0.42435l-3.0866-3.0893c-0.05916-0.05763-0.13588-0.08634-0.2125-0.08634z" stroke-width="1.02"/>
  <path d="m67.677 28.366c-0.8377 0-1.6387 0.35566-2.2 0.97579-1.0994 1.2129-1.0049 3.0908 0.20597 4.1912 0.5476 0.494 1.2541 0.76571 1.992 0.76571 0.8377 0 1.6405-0.35356 2.2007-0.97579 1.0984-1.2108 1.0035-3.093-0.20734-4.1892-0.5476-0.49505-1.2534-0.76777-1.9912-0.76777zm0 0.83894c0.52763 0 1.0337 0.19528 1.4247 0.54949 0.86923 0.7883 0.93569 2.1351 0.15054 3.0033-0.4015 0.44565-0.97712 0.70003-1.5772 0.70003-0.52763 0-1.0326-0.19596-1.4247-0.55017-0.87133-0.7883-0.93711-2.1324-0.14986-3.0027 0.40046-0.44565 0.97749-0.70003 1.5766-0.70003zm-0.77119 0.92857c-0.13415 0.0064-0.26529 0.06402-0.36199 0.17175-0.1976 0.21547-0.17883 0.54658 0.03559 0.74313l1.4877 1.3467c0.10195 0.09039 0.22697 0.13549 0.35309 0.13549 0.144 0 0.28425-0.05787 0.38936-0.17244 0.1955-0.21547 0.17709-0.54769-0.03627-0.74108l-1.4883-1.346c-0.10773-0.0988-0.24495-0.14398-0.3791-0.13754zm6.9606 6.9838c-1.647-0.06727-3.0249 1.1948-3.1005 2.8282-0.07567 1.6334 1.1938 3.0241 2.8261 3.0998 0.04835 0.0042 0.09367 0.0041 0.14096 0.0041 1.5861 0 2.8884-1.2442 2.961-2.8282 0.03468-0.7925-0.23831-1.5526-0.7712-2.137-0.53289-0.58439-1.2627-0.928-2.0563-0.9669zm-0.13891 0.83894c0.03363 0 0.06764-5.2e-5 0.10127 0.0021 0.56862 0.02628 1.0896 0.27349 1.4733 0.69181 0.38154 0.41832 0.5796 0.9628 0.55017 1.5314-0.0536 1.1677-1.0451 2.0809-2.2212 2.0241-1.1698-0.0536-2.0802-1.0514-2.0255-2.2212 0.0536-1.1394 0.98577-2.0282 2.122-2.0282zm-7.3553 1.4123c-1.6355 0-2.967 1.3309-2.967 2.9684 0 1.6365 1.3316 2.9657 2.967 2.9657 1.6365 0 2.9664-1.3302 2.9664-2.9657 0-1.6386-1.331-2.9684-2.9664-2.9684zm6.3803 0.14234c-0.29325-0.01261-0.53829 0.2129-0.5488 0.5009-0.01366 0.28904 0.20838 0.53756 0.49953 0.55017l2.0064 0.09238h0.02396c0.27958 0 0.51082-0.21994 0.52553-0.49953 0.01261-0.29114-0.21217-0.54003-0.50226-0.54948zm-6.3803 0.70002c1.1719 0 2.1247 0.95204 2.1247 2.1261 0 1.1719-0.95277 2.1261-2.1247 2.1261s-2.1261-0.95414-2.1261-2.1261c0-1.174 0.95414-2.1261 2.1261-2.1261zm0 0.5967c-0.29009 0-0.52553 0.23439-0.52553 0.52553v2.0056c0 0.2922 0.23544 0.52553 0.52553 0.52553 0.28904 0 0.52553-0.23439 0.52553-0.52553v-2.0056c0-0.29114-0.23649-0.52553-0.52553-0.52553z" stroke-width="1.0511"/>
  <path d="m47.441 10.425c-0.15402 0-0.28024 0.12525-0.28024 0.27825 0 0.09384 0.05145 0.17111 0.12285 0.22313-0.08568 0.14178-0.14544 0.33688-0.14544 0.61228v0.14211c-0.21727 0.01428-0.3938 0.19233-0.3938 0.41571 0 0.22135 0.17654 0.40317 0.3938 0.41439v0.32806c-0.1173 0.35293-1.5589 4.8198-1.1907 7.9656-0.41005 0.36211-2.7752 2.5464-2.7752 4.7874v20.562c-0.02142 0.10608-0.0941 0.60187 0.32208 1.1455 0.56 0.72626 2.0689 1.5978 6.0797 1.5978 4.0138 0 5.5213-0.87152 6.0803-1.5978 0.41515-0.54368 0.34386-1.0404 0.32141-1.1455v-20.564c0-2.239-2.3648-4.4226-2.7759-4.7848 0.37027-3.1458-1.0741-7.6127-1.1914-7.9677v-0.32606c0.21931-0.01224 0.39579-0.19304 0.39579-0.41439 0-0.22339-0.17547-0.40245-0.39579-0.41571v-0.14211c0-0.27541-0.05777-0.4705-0.14345-0.61228 0.07344-0.05202 0.12086-0.12929 0.12086-0.22313 0-0.153-0.12321-0.27825-0.27825-0.27825zm0.55252 3.3669c0.03177-5.56e-4 0.06404 0.0019 0.09629 8e-3 0.26215 0.04998 0.43418 0.30538 0.38317 0.56446l-0.89319 4.6698c-0.04386 0.23665-0.25488 0.40064-0.48744 0.39248-0.0255-2e-3 -0.05194-0.0039-0.07438-0.01-0.26113-0.04998-0.43412-0.3013-0.38516-0.56446l0.89253-4.6679c0.04463-0.23027 0.24579-0.38858 0.46817-0.39248zm-2.9047 12.231c0.26521 0 0.47814 0.21359 0.47814 0.4788v0.74111c0 0.26521-0.21293 0.4788-0.47814 0.4788-0.26317 0-0.47748-0.2136-0.47748-0.4788v-0.74111c0-0.26521 0.21431-0.4788 0.47748-0.4788zm0 3.1032c0.26929 0 0.48544 0.21682 0.48544 0.4861v15.522c0 0.26725-0.21616 0.48611-0.48544 0.48611-0.26725 0-0.48677-0.21886-0.48677-0.48611v-15.522c0-0.26929 0.21952-0.4861 0.48677-0.4861z" stroke-width="1.02"/>
  <path d="m22.981 36.04c-0.11141-0.0015-0.22364 0.03978-0.3093 0.12386-0.17027 0.16607-0.17433 0.44142-0.0062 0.6138 0.63589 0.65061 1.1004 1.7487 1.0983 3.0478-0.0032 1.8719-0.94053 4.1719-3.6712 6.2078-2.8232 2.0874-3.918 4.6885-3.9128 6.9756 0.0032 2.078 0.87541 3.8945 2.1514 4.892 0.07883 0.06201 0.17296 0.09101 0.26756 0.09101 0.12718 0 0.25564-0.05728 0.34078-0.16764 0.14715-0.18709 0.11255-0.4605-0.07664-0.60765-1.0216-0.7904-1.8196-2.3754-1.8175-4.2064 0.0053-2.0117 0.93473-4.3233 3.5624-6.2804 2.9135-2.162 4.0264-4.7337 4.0243-6.9031-0.0021-1.5051-0.52515-2.8087-1.3439-3.6548-0.08461-0.08618-0.19584-0.13049-0.30725-0.13207zm6.1633 2.4101c-0.02863-3.3e-4 -0.05774 0.0025-0.08691 0.0082-0.23649 0.0473-0.38907 0.27504-0.34282 0.51048 0.07462 0.38364 0.11633 0.78849 0.11633 1.2037-0.0073 2.45-1.4088 5.3216-5.5742 7.2966-3.4233 1.6008-4.7731 4.0605-4.7647 6.2982 0.0032 1.5976 0.66423 3.0604 1.6512 4.0421 0.08198 0.08408 0.19447 0.12727 0.30588 0.12727 0.11141 0 0.22248-0.04314 0.30656-0.12933 0.16922-0.17027 0.16922-0.44353 0-0.6138h-6.84e-4c-0.82193-0.81247-1.396-2.0735-1.3939-3.4263 0.0084-1.8867 1.067-3.9952 4.2665-5.514 4.4019-2.0653 6.0804-5.2818 6.073-8.0808 0-0.47193-0.04967-0.93265-0.1348-1.372-0.04231-0.20508-0.22109-0.34806-0.42152-0.35035zm-10.731 20.959c-0.11457 0-0.22805 0.04739-0.30793 0.12727-0.07988 0.07988-0.12727 0.19346-0.12727 0.30382v3.3516c0 0.11246 0.04703 0.2239 0.12796 0.30588 0.07988 0.08198 0.19268 0.12727 0.30725 0.12727h21.804c0.11246 0 0.22495-0.04529 0.30588-0.12727 0.08093-0.08198 0.12727-0.19342 0.12727-0.30588v-3.3516c0-0.11036-0.04634-0.22394-0.12727-0.30382-0.08093-0.07988-0.19342-0.12727-0.30588-0.12727zm0.43179 0.86836h2.7809v2.4791h-2.7809z" stroke-width="1.0511"/>
 </g>
 <path d="m18.18 81.82 63.64-63.64" fill="none" stroke="#f00" stroke-width="4.1333"/>
 <circle cx="50" cy="50" r="42.933" fill="none" stroke="url(#a)" stroke-width="4.1333"/>
</svg>
