<?xml version="1.0" encoding="UTF-8"?>
<svg version="1.1" viewBox="0 0 24 24" xmlns="http://www.w3.org/2000/svg">
 <path d="m20.004 12a1.752 1.752 0 0 0-2.964-1.2 8.544 8.544 0 0 0-4.62-1.476l0.78-3.744 2.568 0.54a1.2 1.2 0 1 0 0.156-0.732l-2.94-0.588a0.372 0.372 0 0 0-0.444 0.288l-0.888 4.164a8.568 8.568 0 0 0-4.68 1.476 1.752 1.752 0 1 0-1.932 2.868 3.444 3.444 0 0 0 0 0.528c0 2.688 3.132 4.872 6.996 4.872s6.996-2.184 6.996-4.872a3.444 3.444 0 0 0 0-0.528 1.752 1.752 0 0 0 0.972-1.596zm-12 1.2a1.2 1.2 0 1 1 1.2 1.2 1.2 1.2 0 0 1-1.2-1.2zm6.972 3.3a4.608 4.608 0 0 1-2.964 0.924 4.608 4.608 0 0 1-2.964-0.924 0.324 0.324 0 0 1 0.456-0.456 3.924 3.924 0 0 0 2.496 0.756 3.936 3.936 0 0 0 2.508-0.732 0.3352 0.3352 0 1 1 0.468 0.48zm-0.216-2.052a1.2 1.2 0 1 1 1.2-1.2 1.2 1.2 0 0 1-1.212 1.248z"/>
</svg>
