<?xml version="1.0" encoding="UTF-8"?>
<svg version="1.1" viewBox="0 0 24 24" xmlns="http://www.w3.org/2000/svg">
 <path d="m17.643 6.3351c-1.4703-1.5135-3.5027-2.3351-5.5784-2.3351-4.4108 0-7.9568 3.5892-7.9135 7.9568 0 1.3838 0.38919 2.7243 1.0378 3.9351l-1.1243 4.1081 4.1946-1.0811c1.1676 0.64865 2.4649 0.95135 3.7622 0.95135 4.3676 0 7.9135-3.5892 7.9135-7.9568 0-2.1189-0.82162-4.1081-2.2919-5.5784zm-5.5784 12.195c-1.1676 0-2.3351-0.3027-3.3297-0.90811l-0.25946-0.12973-2.5081 0.64865 0.64865-2.4649-0.17297-0.25946c-1.9027-3.0703-0.99459-7.1351 2.1189-9.0378 3.1135-1.9027 7.1351-0.99459 9.0378 2.1189 1.9027 3.1135 0.9946 7.1351-2.1189 9.0378-0.99459 0.64865-2.2054 0.9946-3.4162 0.9946zm3.8054-4.8-0.47568-0.21622s-0.69189-0.3027-1.1243-0.51892c-0.04324 0-0.08649-0.04324-0.12973-0.04324-0.12973 0-0.21622 0.04324-0.3027 0.08649 0 0-0.04324 0.04324-0.64865 0.73514-0.04324 0.08649-0.12973 0.12973-0.21622 0.12973h-0.04324c-0.04324 0-0.12973-0.04324-0.17297-0.08649l-0.21622-0.08649c-0.47568-0.21622-0.90811-0.47568-1.2541-0.82162-0.08649-0.08649-0.21622-0.17297-0.3027-0.25946-0.3027-0.3027-0.60541-0.64865-0.82162-1.0378l-0.04324-0.08649c-0.04325-0.04324-0.04325-0.08649-0.08649-0.17297 0-0.08649 0-0.17297 0.04324-0.21622 0 0 0.17297-0.21622 0.3027-0.34595 0.08649-0.08648 0.12973-0.21621 0.21622-0.3027 0.08649-0.12973 0.12973-0.3027 0.08649-0.43243-0.043244-0.21622-0.56216-1.3838-0.69189-1.6432-0.086486-0.12973-0.17297-0.17297-0.3027-0.21622h-0.47568c-0.086486 0-0.17297 0.04324-0.25946 0.04324l-0.043243 0.04324c-0.086486 0.04324-0.17297 0.12973-0.25946 0.17297-0.086487 0.08649-0.12973 0.17297-0.21622 0.25946-0.3027 0.38919-0.47568 0.86486-0.47568 1.3405 0 0.34595 0.086486 0.69189 0.21622 0.9946l0.043243 0.12973c0.38919 0.82162 0.90811 1.5568 1.6 2.2054l0.17297 0.17297c0.12973 0.12973 0.25946 0.21622 0.34595 0.34595 0.90811 0.77838 1.9459 1.3405 3.1135 1.6432 0.12973 0.04324 0.3027 0.04324 0.43243 0.08649h0.43243c0.21622 0 0.47568-0.08649 0.64865-0.17297 0.12973-0.08649 0.21622-0.08649 0.3027-0.17297l0.08649-0.08648c0.08649-0.08649 0.17297-0.12973 0.25946-0.21622s0.17297-0.17297 0.21622-0.25946c0.08649-0.17297 0.12973-0.38919 0.17297-0.6054v-0.3027s-0.04324-0.04324-0.12973-0.08649z"/>
</svg>
