<?xml version="1.0" encoding="UTF-8"?>
<svg version="1.1" viewBox="0 0 24 24" xmlns="http://www.w3.org/2000/svg">
 <path d="m19.086 6.061-1.6214-1.6214a1.5 1.5 0 0 0-1.0606-0.43941h-5.3786c-0.82861 0-1.5 0.67162-1.5 1.5v1.5h-2.5c-0.82842 0-1.5 0.67162-1.5 1.5v9.9998c0 0.82861 0.67162 1.5 1.5 1.5h6.9999c0.82842 0 1.4999-0.67144 1.4999-1.5v-1.4999h2.5001c0.82842 0 1.4999-0.67162 1.4999-1.5v-8.3786a1.5 1.5 0 0 0-0.43941-1.0606zm-5.2481 12.439h-6.6249a0.1875 0.1875 0 0 1-0.18741-0.18741v-9.6249a0.1875 0.1875 0 0 1 0.18741-0.18741h2.3125v6.9999c0 0.82842 0.67144 1.5 1.5 1.5h2.9999v1.3126a0.1875 0.1875 0 0 1-0.18741 0.18741zm4-2.9999h-6.625a0.1875 0.1875 0 0 1-0.18741-0.1876v-9.6248a0.1875 0.1875 0 0 1 0.18741-0.1876h3.3126v2.75c0 0.41421 0.33581 0.75002 0.75002 0.75002h2.75v6.3124a0.1875 0.1875 0 0 1-0.1876 0.1876zm0.1876-8h-2.0001v-2h0.30109c0.0504 0 0.09707 0.01867 0.13253 0.05413l1.5114 1.5116a0.1875 0.1875 0 0 1 0.05413 0.13253z"/>
</svg>
