<?xml version="1.0" encoding="UTF-8"?>
<svg version="1.1" viewBox="0 0 24 24" xmlns="http://www.w3.org/2000/svg">
 <path d="m11.045 2.0039c-1.0533 0-1.9111 0.84507-1.9355 1.8926h-2.168c-1.1712 0-2.123 0.95185-2.123 2.123v0.87305c0 0.34232 0.27682 0.62109 0.61914 0.62109h13.107 0.001953c0.34218 0 0.61914-0.27877 0.61914-0.62109v-0.87305c0-1.1712-0.9537-2.123-2.125-2.123h-2.168c-0.024474-1.0475-0.88034-1.8926-1.9336-1.8926h-1.8945zm0 1.2402h1.8926c0.36982 0 0.6743 0.28808 0.69727 0.65234h-3.2871c0.02297-0.36426 0.32745-0.65234 0.69727-0.65234zm-4.1035 1.8926h10.1c0.48744-1e-7 0.88476 0.39537 0.88476 0.88281v0.25391h-11.867v-0.25391c0-0.48744 0.39537-0.88281 0.88281-0.88281zm-0.51953 3.3711c-0.34246 0-0.61914 0.27668-0.61914 0.61914v10.473c0 1.3247 1.0776 2.4023 2.4023 2.4023h7.5742c1.3246 0 2.4023-1.0776 2.4023-2.4023v-10.473c0-0.34246-0.27668-0.61914-0.61914-0.61914h-11.141zm0.62109 1.2402h9.8984v9.8516c0 0.64092-0.52121 1.1621-1.1621 1.1621h-7.5742c-0.64107 0-1.1621-0.52117-1.1621-1.1621v-9.8516zm2.418 2.1289c-0.34232 0-0.62109 0.27668-0.62109 0.61914v5.7227c-1e-7 0.34235 0.27877 0.61914 0.62109 0.61914 0.34247 0 0.61914-0.27679 0.61914-0.61914v-5.7227c0-0.34246-0.27668-0.61914-0.61914-0.61914zm2.5313 0c-0.34247 0-0.61914 0.27668-0.61914 0.61914v5.7227c0 0.34235 0.27668 0.61914 0.61914 0.61914 0.34247 0 0.62109-0.27679 0.62109-0.61914v-5.7227c0-0.34246-0.27862-0.61914-0.62109-0.61914zm2.5312 0c-0.34246 0-0.61914 0.27668-0.61914 0.61914v5.7227c0 0.34235 0.27668 0.61914 0.61914 0.61914 0.34218 0 0.62109-0.27679 0.62109-0.61914v-5.7227c0-0.34246-0.27892-0.61914-0.62109-0.61914z"/>
</svg>
