<?xml version="1.0" encoding="UTF-8"?>
<svg version="1.1" viewBox="0 0 24 24" xmlns="http://www.w3.org/2000/svg">
 <path d="m15.703 23.398c-0.50512 0.04619-0.70169-0.2913-0.70169-0.58303 0-0.40502 0.0147-1.6954 0.0147-3.3004 0-1.125-0.37508-1.8443-0.81011-2.2193 2.6701-0.30001 5.4758-1.3204 5.4758-5.9256 0-1.3201-0.46548-2.3857-1.2305-3.2257 0.12-0.30001 0.5399-1.5302-0.12012-3.1803 0 0-1.0053-0.32955-3.3004 1.2305-0.96004-0.27001-1.9801-0.40431-3.0001-0.40431s-2.0401 0.1343-3.0001 0.40431c-2.2951-1.5451-3.2989-1.2305-3.2989-1.2305-0.66003 1.6501-0.24013 2.8803-0.12013 3.1803-0.76503 0.84004-1.2305 1.9207-1.2305 3.2257-2e-7 4.5902 2.7896 5.6255 5.4597 5.9256-0.34501 0.30001-0.65967 0.82406-0.76466 1.6041-0.69003 0.31501-2.4153 0.82624-3.4953-0.98884-0.22501-0.36002-0.89929-1.2455-1.8443-1.2305-1.005 0.015-0.40537 0.57044 0.014656 0.79541 0.51002 0.28501 1.0955 1.3499 1.2305 1.6949 0.24001 0.67503 1.0192 1.9643 4.0343 1.4092 0 1.005 0.014656 1.9505 0.014656 2.2355 8e-7 0.30669-0.21582 0.65289-0.78078 0.57424 1.2102 0.40164 2.4766 0.60784 3.7517 0.61086 1.2579-0.0055 2.5071-0.20861 3.7018-0.60207z" stroke-width=".75003"/>
</svg>
