<?xml version="1.0" encoding="UTF-8"?>
<svg version="1.1" viewBox="0 0 24 24" xmlns="http://www.w3.org/2000/svg">
 <path d="m12 1.9001c-0.45499 0-0.90994 0.30439-0.89998 0.91405v8.8139l-3.9718-3.9421c-0.35121-0.34859-0.91848-0.34648-1.2672 0.0047-0.34902 0.35109-0.34688 0.91846 0.00469 1.2672l5.5234 5.4827v-0.0016c0.17563 0.17429 0.40493 0.26185 0.63436 0.26097 0.22933-8.8e-4 0.45837-0.08849 0.6328-0.26406l5.4827-5.5234c0.17441-0.17562 0.26178-0.40502 0.26093-0.63436-8.84e-4 -0.22934-0.08992-0.45852-0.26562-0.6328-0.35121-0.34859-0.91834-0.34648-1.2672 0.0047l-3.9671 3.9968v-8.8327c0.01-0.60966-0.44499-0.91405-0.89999-0.91405zm-7.0999 7.9999c-0.45396 0-0.90809 0.30444-0.89999 0.91249v7.7749c0 0.0022 0.00158 4e-3 0.00156 0.0062-0.00282 0.44548 0.28694 0.88992 0.86874 0.90311 0.00551 1.6e-4 0.010105 3e-3 0.015624 0.0031 0.0028 0 0.00502-0.0016 0.00782-0.0016 0.00714 8e-5 0.013113 0.0017 0.020313 0.0016h14.172c0.61261 0.01001 0.91536-0.44912 0.91248-0.90624 0-0.0022 0.0016-4e-3 0.0016-0.0062v-7.7749c0.01621-1.2161-1.8162-1.2161-1.8 0v6.8874h-12.4v-6.8874c0.00811-0.60804-0.44603-0.91249-0.89999-0.91249z"/>
</svg>
