<?xml version="1.0" encoding="UTF-8"?>
<svg version="1.1" viewBox="0 0 24 24" xmlns="http://www.w3.org/2000/svg">
 <path d="m16.053 14.105c-0.76643 0-1.4644 0.29268-1.9886 0.77216l-5.2609-2.146c0.12216-0.47994 0.12216-0.98284 0-1.4628l5.2609-2.146c0.52421 0.47952 1.2222 0.77221 1.9886 0.77221 1.6278 0 2.9474-1.3196 2.9474-2.9474s-1.3196-2.9474-2.9474-2.9474-2.9474 1.3196-2.9474 2.9474c0 0.25247 0.03184 0.49752 0.09158 0.73142l-5.2609 2.146c-0.52416-0.47952-1.2221-0.77221-1.9885-0.77221-1.6278 0-2.9474 1.3196-2.9474 2.9474s1.3196 2.9474 2.9474 2.9474c0.76642 0 1.4644-0.29268 1.9886-0.77216l5.2609 2.146c-0.06096 0.23902-0.09173 0.48474-0.09158 0.73142 0 1.6278 1.3196 2.9474 2.9474 2.9474s2.9474-1.3196 2.9474-2.9474c-6.1e-5 -1.6278-1.3196-2.9474-2.9474-2.9474z"/>
</svg>
