<?xml version="1.0" encoding="UTF-8"?>
<svg version="1.1" viewBox="0 0 24 24" xmlns="http://www.w3.org/2000/svg">
 <path d="m20 7.0378c-0.58839 0.26072-1.2205 0.43689-1.885 0.51652 0.67788-0.40588 1.1979-1.0499 1.4431-1.8166-0.63419 0.37629-1.3367 0.6497-2.0844 0.79627-0.59896-0.63701-1.4516-1.0359-2.3958-1.0359-1.8124 0-3.2823 1.4699-3.2823 3.2837 0 0.2565 0.0296 0.50595 0.08456 0.74694-2.7291-0.13741-5.1468-1.4446-6.7661-3.4303-0.28186 0.48622-0.44394 1.0499-0.44394 1.6503 0 1.1387 0.57994 2.1443 1.4601 2.7327-0.53836-0.017617-1.0443-0.16489-1.4868-0.41082v0.04228c0 1.5904 1.131 2.9173 2.6333 3.2189-0.27623 0.07469-0.56584 0.11415-0.86462 0.11415-0.2114 0-0.41786-0.01973-0.61799-0.05778 0.41786 1.3036 1.6299 2.2535 3.0667 2.2789-1.1239 0.88082-2.5396 1.4058-4.0772 1.4058-0.26495 0-0.52638-0.0155-0.78358-0.0458 1.453 0.93226 3.178 1.4749 5.0313 1.4749 6.0389 0 9.3403-5.0017 9.3403-9.3396 0-0.14093-0.0035-0.28327-0.0099-0.42421 0.64124-0.46367 1.1979-1.0408 1.6369-1.6982z"/>
</svg>
